<?xml version="1.0" encoding="UTF-8" standalone="no"?>
<svg width="346px" height="526px" viewBox="0 0 346 526" version="1.1" xmlns="http://www.w3.org/2000/svg" xmlns:xlink="http://www.w3.org/1999/xlink" xmlns:sketch="http://www.bohemiancoding.com/sketch/ns">
    <!-- Generator: Sketch 3.2.2 (9983) - http://www.bohemiancoding.com/sketch -->
    <title>Slice 1</title>
    <desc>Created with Sketch.</desc>
    <defs></defs>
    <g id="Page-1" stroke="none" stroke-width="1" fill="none" fill-rule="evenodd" sketch:type="MSPage">
        <g id="yoda" sketch:type="MSLayerGroup" transform="translate(4.000000, 0.000000)" fill="#161922">
            <path d="M197.269,37.805 C224.812,38.281 235.705,22.103 262.756,22.088 C246.64,43.517 241.399,75.823 207.747,79.716 C209.599,92.916 203.044,97.718 199.889,105.911 C237.098,89.35 264.005,117.502 281.093,137.345 C298.782,136.245 299.383,108.587 317.766,116.389 C323.383,129.819 312.926,129.154 312.527,142.584 C319.984,149.624 330.779,133.682 341.341,142.584 L341.341,153.062 C340.384,165.203 322.646,160.562 320.385,171.399 C311.583,202.69 344.723,275.043 315.146,284.037 C295.21,290.099 281.375,267.875 267.996,257.843 C271.465,283.963 260.155,326.908 273.235,352.145 C281.707,368.491 291.081,385.377 294.191,407.154 C299.769,446.202 292.377,479.134 323.004,490.979 C322.268,499.846 318.837,506.019 320.385,517.173 C305.63,512.763 288.324,510.011 281.093,525.031 C261.628,510.987 247.177,521.145 228.702,519.792 C222.795,513.926 228.871,506.666 231.322,501.456 C172.253,485.599 105.141,527.929 61.054,504.075 C33.585,441.965 31.41,370.627 24.381,289.276 C18.083,285.314 13.688,287.764 6.044,286.657 C-10.376,265.158 14.596,251.005 29.62,244.745 C29.651,233.433 24.806,230.061 32.239,223.789 C37.195,218.591 44.615,222.518 50.576,223.789 C62.139,210.904 70.524,194.841 89.868,189.735 C95.302,168.098 94.573,140.302 110.824,129.486 C107.437,124.14 98.125,124.723 100.346,113.769 C76.105,119.504 56.393,103.209 27,105.911 C31.533,81.63 67.669,88.951 82.01,74.477 C73.148,36.781 109.714,30.611 108.205,8.99 C138.235,-12.481 181.93,13.28 197.269,37.805 L197.269,37.805 Z M61.055,490.979 C67.491,494.167 84.84,489.65 89.869,483.12 C76.26,481.446 68.877,488.898 58.435,483.12 C63.045,427.481 66.575,370.763 76.771,320.712 C58.637,315.271 45.916,304.416 37.479,289.277 C52.393,354.999 41.35,430.492 61.055,490.979 L61.055,490.979 Z" id="Shape" sketch:type="MSShapeGroup"></path>
        </g>
        <path d="M3,56 C3,56 45.1588379,63.0117218 45.1588371,63.0117217" id="Path-3" stroke="#161922" stroke-width="5" sketch:type="MSShapeGroup"></path>
    </g>
</svg>